<svg width="800" height="800" viewBox="0 0 800 800" fill="none" xmlns="http://www.w3.org/2000/svg">
<path d="M300 700V453.333C300 434.663 300 425.33 303.633 418.2C306.829 411.927 311.928 406.83 318.2 403.633C325.331 400 334.667 400 353.333 400H446.667C465.337 400 474.67 400 481.8 403.633C488.073 406.83 493.17 411.927 496.367 418.2C500 425.33 500 434.663 500 453.333V700M66.6667 316.667L368 90.6666C379.477 82.0603 385.213 77.757 391.513 76.098C397.077 74.634 402.923 74.634 408.487 76.0983C414.787 77.757 420.523 82.0603 432 90.6666L733.333 316.667M133.333 266.667V593.333C133.333 630.67 133.333 649.34 140.6 663.6C146.991 676.143 157.19 686.343 169.734 692.733C183.995 700 202.663 700 240 700H560C597.337 700 616.007 700 630.267 692.733C642.81 686.343 653.01 676.143 659.4 663.6C666.667 649.34 666.667 630.67 666.667 593.333V266.667L464 114.667C441.05 97.4536 429.573 88.8473 416.97 85.5296C405.847 82.6013 394.153 82.6013 383.03 85.5296C370.427 88.8473 358.95 97.4536 336 114.667L133.333 266.667Z" stroke="white" stroke-width="66.6667" stroke-linecap="round" stroke-linejoin="round"/>
</svg>
