<svg width="24" height="25" viewBox="0 0 24 25" fill="none" xmlns="http://www.w3.org/2000/svg">
<path d="M11.9782 0C18.3601 0 23.7566 2.22734 23.9393 4.89362C23.7566 7.55966 18.3601 9.78757 11.9782 9.78757C5.59612 9.78757 0.200051 7.56015 0.0171509 4.89362C0.200051 2.22734 5.59612 0 11.9782 0Z" fill="white"/>
<path d="M23.9565 19.4571C23.9565 22.1846 18.4715 24.4889 11.9783 24.4889C5.48499 24.4889 0 22.1846 0 19.4571V17.051C2.05071 19.1325 6.58621 20.5481 11.9783 20.5481C17.3703 20.5481 21.9057 19.1321 23.9565 17.051V19.4571Z" fill="white"/>
<path d="M23.9565 14.5225C23.9565 17.2499 18.4715 19.5543 11.9783 19.5543C5.48499 19.5543 0 17.2499 0 14.5225V12.0164C2.05071 14.0973 6.58621 15.5126 11.9783 15.5126C17.3703 15.5126 21.9057 14.0964 23.9565 12.0164V14.5225Z" fill="white"/>
<path d="M23.9565 9.48684C23.9565 12.2144 18.4715 14.5185 11.9783 14.5185C5.48499 14.5185 0 12.2143 0 9.48684V7.28479C2.05071 9.36625 6.58621 10.7809 11.9783 10.7809C17.3703 10.7809 21.9057 9.36577 23.9565 7.28479V9.48684Z" fill="white"/>
</svg>
